<?xml version="1.0" encoding="utf-8"?>
<!-- Generator: Adobe Illustrator 20.1.0, SVG Export Plug-In . SVG Version: 6.00 Build 0)  -->
<svg version="1.1" id="Arrow_1_" xmlns="http://www.w3.org/2000/svg" xmlns:xlink="http://www.w3.org/1999/xlink" x="0px" y="0px"
	 viewBox="0 0 500 500" style="enable-background:new 0 0 500 500;" xml:space="preserve">
<style type="text/css">
	.st0{fill:#EEEEEE;}
</style>
<g id="_x37_65-arrow-left-toolbar_x40_2x.png">
	<g>
		<path class="st0" d="M128.5,21.2L345.3,250L128.5,478.8l0,0c-2.2,2.2-3.5,5.3-3.5,8.6c0,7,5.6,12.6,12.5,12.6c3.5,0,6.7-1.5,9-3.9
			l0,0l225-237.5l0,0c2.2-2.2,3.5-5.3,3.5-8.6c0-3.4-1.4-6.4-3.5-8.6l0,0L146.5,3.9l0,0c-2.3-2.4-5.4-3.9-9-3.9
			C130.6,0,125,5.6,125,12.5C125,15.9,126.4,18.9,128.5,21.2L128.5,21.2z"/>
	</g>
</g>
</svg>
