<?xml version="1.0" encoding="utf-8"?>
<!-- Generator: Adobe Illustrator 20.1.0, SVG Export Plug-In . SVG Version: 6.00 Build 0)  -->
<svg version="1.1" id="Layer_1" xmlns="http://www.w3.org/2000/svg" xmlns:xlink="http://www.w3.org/1999/xlink" x="0px" y="0px"
	 viewBox="0 0 500 500" style="enable-background:new 0 0 500 500;" xml:space="preserve">
<style type="text/css">
	.st0{fill:#EEEEEE;}
</style>
<path class="st0" d="M250,500C112.2,500,0,387.8,0,250S112.2,0,250,0s250,112.2,250,250S387.8,500,250,500z M250,48
	C137.1,48,45.2,139.8,45.2,252.8S137.1,457.5,250,457.5c112.9,0,204.8-91.8,204.8-204.8S362.9,48,250,48z M272.1,334.6
	c-6.1,6.1-14.1,9.2-22.1,9.2c-8,0-16-3.1-22.1-9.2l-93.8-93.8c-12.2-12.2-12.2-32,0-44.2c12.2-12.2,32-12.2,44.2,0l71.7,71.7
	l71.7-71.7c12.2-12.2,32-12.2,44.2,0c12.2,12.2,12.2,32,0,44.2L272.1,334.6z"/>
</svg>
