<?xml version="1.0" encoding="utf-8"?>
<!-- Generator: Adobe Illustrator 21.0.0, SVG Export Plug-In . SVG Version: 6.00 Build 0)  -->
<svg version="1.1" id="Arrow_1_" xmlns="http://www.w3.org/2000/svg" xmlns:xlink="http://www.w3.org/1999/xlink" x="0px" y="0px"
	 viewBox="0 0 500 500" style="enable-background:new 0 0 500 500;" xml:space="preserve">
<style type="text/css">
	.st0{fill:#FFFFFF;}
</style>
<g id="Layer_1_1_">
	<g>
		<g>
			<path class="st0" d="M250,0C125,0,62.5,93.8,62.5,187.5S250,500,250,500s187.5-218.8,187.5-312.5S375,0,250,0z M250,451.2
				C181.6,366.9,93.8,240.9,93.8,187.5c0-41.5,13.8-79.9,39-108.1c28-31.5,68.5-48.1,117.3-48.1c107.3,0,156.2,81,156.2,156.2
				C406.2,240.9,318.4,366.9,250,451.2z"/>
		</g>
		<g>
			<path class="st0" d="M250,117.2c-38.8,0-70.3,31.5-70.3,70.3s31.5,70.3,70.3,70.3s70.3-31.5,70.3-70.3S288.8,117.2,250,117.2z
				 M250,242.2c-30.2,0-54.7-24.5-54.7-54.7s24.5-54.7,54.7-54.7s54.7,24.5,54.7,54.7S280.2,242.2,250,242.2z"/>
		</g>
	</g>
</g>
</svg>
