<?xml version="1.0" encoding="utf-8"?>
<!-- Generator: Adobe Illustrator 21.0.0, SVG Export Plug-In . SVG Version: 6.00 Build 0)  -->
<svg version="1.1" id="Arrow_1_" xmlns="http://www.w3.org/2000/svg" xmlns:xlink="http://www.w3.org/1999/xlink" x="0px" y="0px"
	 viewBox="0 0 500 500" style="enable-background:new 0 0 500 500;" xml:space="preserve">
<style type="text/css">
	.st0{fill:#FFFFFF;}
</style>
<g>
	<path class="st0" d="M437.5,62.5h-375C28,62.5,0,90.5,0,125v250c0,34.5,28,62.5,62.5,62.5h375c34.5,0,62.5-28,62.5-62.5V125
		C500,90.5,472,62.5,437.5,62.5z M62.5,93.7h375c17.2,0,31.3,14.1,31.3,31.3v16.7L250,287.5L31.2,141.7V125
		C31.2,107.8,45.3,93.7,62.5,93.7z M437.5,406.3h-375c-17.2,0-31.3-14.1-31.3-31.3V160.4L250,306.3l218.8-145.8V375
		C468.7,392.2,454.7,406.3,437.5,406.3z"/>
</g>
</svg>
